<?xml version="1.0" encoding="UTF-8"?>
<svg xmlns="http://www.w3.org/2000/svg" xmlns:xlink="http://www.w3.org/1999/xlink" width="2001" height="2001" viewBox="0 0 2001 2001">
<path fill-rule="evenodd" fill="rgb(100%, 100%, 100%)" fill-opacity="1" d="M 0.921875 0.078125 L 2000.921875 0.078125 L 2000.921875 2000.078125 L 0.921875 2000.078125 L 0.921875 0.078125 "/>
<path fill-rule="evenodd" fill="rgb(75.193787%, 0%, 0%)" fill-opacity="1" d="M 997.429688 778.160156 L 997.074219 776.589844 C 895.617188 901.550781 765.761719 1030.285156 613.550781 1075.035156 L 613.402344 1074.382812 C 611.726562 1066.933594 604.351562 1062.195312 597.011719 1063.847656 L 479.605469 1090.292969 C 472.269531 1091.945312 467.636719 1099.390625 469.3125 1106.835938 C 479.753906 1153.1875 490.195312 1199.535156 500.632812 1245.886719 C 502.3125 1253.335938 509.6875 1258.074219 517.027344 1256.421875 L 634.429688 1229.976562 C 641.769531 1228.324219 646.398438 1220.878906 644.722656 1213.433594 L 644.574219 1212.777344 C 801.273438 1187.949219 973.785156 1248.582031 1119.019531 1317.976562 L 1118.671875 1316.410156 L 997.429688 778.160156 "/>
<path fill-rule="evenodd" fill="rgb(0%, 0%, 0%)" fill-opacity="1" d="M 501.277344 1247.96875 C 470.21875 1252.257812 440.871094 1242.300781 423.152344 1223.179688 L 457.183594 1215.515625 C 460.222656 1214.828125 462.238281 1212.199219 461.671875 1209.667969 L 461.671875 1209.664062 C 461.101562 1207.132812 458.148438 1205.621094 455.109375 1206.308594 L 416.65625 1214.96875 C 414.945312 1212.417969 413.417969 1209.746094 412.089844 1206.96875 L 453.171875 1197.714844 C 456.210938 1197.027344 458.230469 1194.398438 457.660156 1191.867188 C 457.089844 1189.332031 454.136719 1187.820312 451.097656 1188.507812 L 408.644531 1198.066406 C 408.226562 1196.671875 407.851562 1195.246094 407.527344 1193.804688 C 407.203125 1192.363281 406.9375 1190.917969 406.714844 1189.472656 L 449.164062 1179.914062 C 452.203125 1179.226562 454.222656 1176.597656 453.652344 1174.066406 L 453.652344 1174.0625 C 453.078125 1171.53125 450.128906 1170.019531 447.089844 1170.703125 L 406.007812 1179.960938 C 406.015625 1176.875 406.253906 1173.808594 406.707031 1170.773438 L 445.152344 1162.113281 C 448.191406 1161.429688 450.210938 1158.796875 449.640625 1156.265625 C 449.070312 1153.730469 446.117188 1152.21875 443.078125 1152.90625 L 409.058594 1160.566406 C 416.863281 1135.695312 439.105469 1114.121094 469.003906 1104.679688 C 469.050781 1105.394531 469.152344 1106.113281 469.3125 1106.835938 C 479.753906 1153.1875 490.195312 1199.535156 500.632812 1245.886719 C 500.796875 1246.609375 501.011719 1247.300781 501.277344 1247.96875 "/>
<path fill-rule="evenodd" fill="rgb(100%, 39.988708%, 0%)" fill-opacity="1" d="M 515.75 1246.960938 C 557.304688 1312.550781 592 1391.351562 619.828125 1483.363281 C 621.402344 1488.5625 624.984375 1492.367188 630.082031 1494.246094 C 635.179688 1496.128906 640.371094 1495.5625 644.945312 1492.628906 C 690.070312 1463.691406 720.625 1444.097656 736.617188 1433.84375 C 744.046875 1429.074219 746.515625 1419.421875 742.28125 1411.671875 L 727.234375 1384.140625 C 725.277344 1380.5625 722.484375 1378.089844 718.691406 1376.589844 C 712.398438 1374.097656 707.410156 1368.640625 705.8125 1361.539062 C 705.671875 1360.914062 705.558594 1360.285156 705.472656 1359.660156 C 704.859375 1355.050781 702.675781 1351.300781 698.964844 1348.496094 C 695.113281 1345.582031 692.230469 1341.34375 691.089844 1336.261719 C 690.945312 1335.636719 690.835938 1335.007812 690.75 1334.382812 C 690.136719 1329.773438 687.953125 1326.023438 684.242188 1323.21875 C 680.390625 1320.304688 677.507812 1316.066406 676.363281 1310.984375 C 675.589844 1307.554688 675.699219 1304.128906 676.539062 1300.945312 C 677.675781 1296.632812 677.175781 1292.535156 675.039062 1288.621094 L 629.621094 1205.507812 C 621.503906 1206.339844 613.417969 1207.378906 605.378906 1208.652344 L 605.523438 1209.308594 C 607.203125 1216.753906 602.570312 1224.195312 595.230469 1225.851562 L 514.269531 1244.085938 C 514.664062 1245.066406 515.160156 1246.023438 515.75 1246.960938 "/>
<path fill-rule="evenodd" fill="rgb(100%, 45.872498%, 10.205078%)" fill-opacity="1" d="M 629.175781 1237.859375 L 667.859375 1308.648438 C 669.683594 1311.980469 670.105469 1315.472656 669.136719 1319.144531 C 668.425781 1321.855469 668.332031 1324.773438 668.992188 1327.695312 C 669.964844 1332.023438 672.417969 1335.632812 675.699219 1338.113281 C 678.859375 1340.503906 680.722656 1343.695312 681.242188 1347.625 C 681.316406 1348.15625 681.410156 1348.691406 681.53125 1349.226562 C 682.503906 1353.550781 684.960938 1357.164062 688.238281 1359.644531 C 691.398438 1362.035156 693.261719 1365.226562 693.785156 1369.152344 C 693.855469 1369.6875 693.949219 1370.21875 694.070312 1370.753906 C 695.433594 1376.800781 699.683594 1381.449219 705.039062 1383.570312 C 708.273438 1384.851562 710.652344 1386.953125 712.320312 1390.003906 L 725.132812 1413.453125 C 728.738281 1420.050781 726.636719 1428.273438 720.308594 1432.335938 C 706.6875 1441.066406 680.664062 1457.757812 642.230469 1482.40625 C 641.867188 1482.640625 641.496094 1482.855469 641.121094 1483.054688 C 642.714844 1482.691406 644.269531 1482.035156 645.746094 1481.085938 C 684.175781 1456.441406 710.203125 1439.75 723.820312 1431.015625 C 730.152344 1426.957031 732.253906 1418.734375 728.648438 1412.136719 L 715.832031 1388.6875 C 714.164062 1385.636719 711.785156 1383.53125 708.554688 1382.253906 C 703.195312 1380.132812 698.945312 1375.484375 697.585938 1369.4375 C 697.464844 1368.902344 697.367188 1368.367188 697.296875 1367.835938 C 696.773438 1363.90625 694.914062 1360.71875 691.753906 1358.324219 C 688.472656 1355.847656 686.019531 1352.234375 685.046875 1347.90625 C 684.925781 1347.371094 684.828125 1346.839844 684.757812 1346.308594 C 684.234375 1342.378906 682.375 1339.1875 679.214844 1336.796875 C 675.933594 1334.316406 673.480469 1330.703125 672.503906 1326.378906 C 671.847656 1323.453125 671.9375 1320.535156 672.652344 1317.828125 C 673.621094 1314.15625 673.195312 1310.664062 671.375 1307.328125 L 633.191406 1237.453125 C 626.167969 1238.105469 619.171875 1238.941406 612.214844 1239.972656 C 617.84375 1239.140625 623.503906 1238.441406 629.175781 1237.859375 "/>
<path fill-rule="evenodd" fill="rgb(64.646912%, 0%, 0.389099%)" fill-opacity="1" d="M 644.574219 1212.777344 C 643.242188 1206.859375 632.902344 1160.945312 613.550781 1075.035156 L 613.402344 1074.378906 C 611.726562 1066.933594 604.347656 1062.195312 597.011719 1063.847656 L 479.605469 1090.292969 C 472.976562 1091.785156 468.558594 1098.003906 469 1104.679688 C 469.046875 1105.394531 469.152344 1106.117188 469.3125 1106.835938 C 479.753906 1153.1875 490.195312 1199.535156 500.632812 1245.886719 C 500.796875 1246.609375 501.011719 1247.304688 501.273438 1247.96875 C 503.738281 1254.191406 510.398438 1257.914062 517.027344 1256.421875 L 553.46875 1248.210938 L 634.429688 1229.976562 C 641.769531 1228.324219 646.398438 1220.878906 644.722656 1213.433594 L 644.574219 1212.777344 "/>
<path fill-rule="evenodd" fill="rgb(100%, 39.988708%, 0%)" fill-opacity="1" d="M 1018.628906 752.539062 C 1034.359375 748.988281 1050.140625 758.96875 1053.679688 774.699219 L 1170.671875 1294.085938 C 1174.210938 1309.820312 1164.238281 1325.597656 1148.5 1329.140625 C 1132.761719 1332.683594 1116.988281 1322.710938 1113.449219 1306.972656 L 996.460938 787.589844 C 992.914062 771.851562 1002.890625 756.078125 1018.628906 752.539062 "/>
<path fill-rule="evenodd" fill="rgb(0%, 0%, 0%)" fill-opacity="1" d="M 1098.398438 973.230469 L 1119.71875 1067.871094 C 1139.089844 1057.890625 1150.449219 1035.859375 1145.980469 1013.488281 C 1141.339844 990.28125 1121.128906 973.960938 1098.398438 973.230469 "/>
<path fill-rule="evenodd" fill="rgb(100%, 51.367188%, 19.213867%)" fill-opacity="1" d="M 1046.460938 778.828125 L 1163.449219 1298.210938 C 1166.019531 1309.617188 1161.480469 1321.046875 1152.800781 1327.820312 C 1166 1322.617188 1173.878906 1308.335938 1170.671875 1294.085938 L 1119.71875 1067.871094 L 1098.398438 973.230469 L 1053.679688 774.699219 C 1050.140625 758.96875 1034.359375 748.988281 1018.628906 752.539062 C 1014.300781 753.511719 1010.398438 755.410156 1007.109375 757.980469 C 1008.480469 757.441406 1009.921875 757 1011.410156 756.660156 C 1027.140625 753.121094 1042.921875 763.089844 1046.460938 778.828125 "/>
<path fill-rule="evenodd" fill="rgb(58.396912%, 0%, 0.389099%)" fill-opacity="1" d="M 1100.039062 1294.597656 L 1103.261719 1308.90625 C 1103.398438 1309.53125 1103.558594 1310.152344 1103.738281 1310.757812 C 1108.601562 1313.027344 1113.421875 1315.304688 1118.21875 1317.59375 C 1115.988281 1314.496094 1114.328125 1310.914062 1113.449219 1306.972656 L 1111.910156 1300.15625 L 996.460938 787.589844 C 995.734375 784.371094 995.574219 781.140625 995.917969 778.019531 C 992.746094 781.910156 989.546875 785.820312 986.320312 789.71875 L 1100.039062 1294.597656 "/>
<path fill-rule="evenodd" fill="rgb(82.03125%, 27.43988%, 27.43988%)" fill-opacity="1" d="M 594.949219 1068.488281 C 602.285156 1066.835938 609.664062 1071.578125 611.339844 1079.023438 L 611.488281 1079.679688 C 630.839844 1165.589844 641.179688 1211.503906 642.511719 1217.417969 L 642.660156 1218.074219 C 643.144531 1220.230469 643.101562 1222.382812 642.617188 1224.394531 C 644.730469 1221.3125 645.609375 1217.371094 644.722656 1213.433594 L 644.574219 1212.777344 C 643.242188 1206.859375 632.902344 1160.945312 613.550781 1075.035156 L 613.402344 1074.378906 C 611.726562 1066.933594 604.347656 1062.195312 597.011719 1063.847656 L 479.605469 1090.292969 C 474.390625 1091.46875 470.542969 1095.566406 469.355469 1100.515625 C 471.234375 1097.773438 474.089844 1095.710938 477.542969 1094.933594 L 594.949219 1068.488281 "/>
<path fill-rule="evenodd" fill="rgb(100%, 78.514099%, 18.821716%)" fill-opacity="1" d="M 1397.621094 615.878906 L 1370.480469 504.820312 L 1327.199219 617.179688 L 1304.441406 544.679688 L 1199.128906 824.199219 L 1310.648438 669.699219 L 1321.640625 729.210938 L 1397.621094 615.878906 "/>
<path fill-rule="evenodd" fill="rgb(100%, 56.834412%, 0%)" fill-opacity="1" d="M 1321.210938 598.101562 L 1356.328125 509.78125 L 1370.480469 504.820312 L 1327.199219 617.179688 L 1321.210938 598.101562 "/>
<path fill-rule="evenodd" fill="rgb(100%, 56.834412%, 0%)" fill-opacity="1" d="M 1310.648438 669.699219 L 1321.640625 729.210938 L 1313.199219 725.910156 L 1303.898438 679.050781 L 1310.648438 669.699219 "/>
<path fill-rule="evenodd" fill="rgb(100%, 56.834412%, 0%)" fill-opacity="1" d="M 1304.441406 544.679688 L 1199.128906 824.199219 L 1197.949219 822.769531 L 1301.628906 544.808594 L 1304.441406 544.679688 "/>
<path fill-rule="evenodd" fill="rgb(100%, 78.514099%, 18.821716%)" fill-opacity="1" d="M 1509.378906 1166.339844 L 1573.71875 1260.839844 L 1461.269531 1217.785156 L 1499.898438 1283.222656 L 1221.738281 1174.378906 L 1411.179688 1194.933594 L 1374.320312 1146.9375 L 1509.378906 1166.339844 "/>
<path fill-rule="evenodd" fill="rgb(100%, 56.834412%, 0%)" fill-opacity="1" d="M 1471.441406 1235.007812 L 1560.558594 1268.035156 L 1573.71875 1260.839844 L 1461.269531 1217.785156 L 1471.441406 1235.007812 "/>
<path fill-rule="evenodd" fill="rgb(100%, 56.834412%, 0%)" fill-opacity="1" d="M 1411.179688 1194.933594 L 1374.320312 1146.9375 L 1371.121094 1155.414062 L 1399.710938 1193.691406 L 1411.179688 1194.933594 "/>
<path fill-rule="evenodd" fill="rgb(100%, 56.834412%, 0%)" fill-opacity="1" d="M 1499.898438 1283.222656 L 1221.738281 1174.378906 L 1222.019531 1176.203125 L 1497.921875 1285.230469 L 1499.898438 1283.222656 "/>
<path fill-rule="evenodd" fill="rgb(100%, 78.514099%, 18.821716%)" fill-opacity="1" d="M 1502.679688 881.539062 L 1595.828125 947.808594 L 1475.429688 946.480469 L 1534.378906 994.441406 L 1235.738281 988.96875 L 1420.519531 942.449219 L 1369.28125 910.25 L 1502.679688 881.539062 "/>
<path fill-rule="evenodd" fill="rgb(100%, 56.834412%, 0%)" fill-opacity="1" d="M 1490.949219 959.101562 L 1585.988281 959.128906 L 1595.828125 947.808594 L 1475.429688 946.480469 L 1490.949219 959.101562 "/>
<path fill-rule="evenodd" fill="rgb(100%, 56.834412%, 0%)" fill-opacity="1" d="M 1420.519531 942.449219 L 1369.28125 910.25 L 1369.230469 919.308594 L 1409.328125 945.269531 L 1420.519531 942.449219 "/>
<path fill-rule="evenodd" fill="rgb(100%, 56.834412%, 0%)" fill-opacity="1" d="M 1534.378906 994.441406 L 1235.738281 988.96875 L 1236.628906 990.589844 L 1533.230469 997 L 1534.378906 994.441406 "/>
</svg>
